<svg width="24" height="21" viewBox="0 0 24 21" fill="none" xmlns="http://www.w3.org/2000/svg">
<path d="M8.00045 2.04568V4.58376" stroke="#292D32" stroke-width="1.5" stroke-miterlimit="10" stroke-linecap="round" stroke-linejoin="round"/>
<path d="M16.0004 2.04568V4.58376" stroke="#292D32" stroke-width="1.5" stroke-miterlimit="10" stroke-linecap="round" stroke-linejoin="round"/>
<path d="M3.50045 8.04398H20.5004" stroke="#292D32" stroke-width="1.5" stroke-miterlimit="10" stroke-linecap="round" stroke-linejoin="round"/>
<path d="M22.0004 16.4281C22.0004 17.0626 21.7904 17.6633 21.4204 18.1709C20.7304 19.1523 19.4604 19.8122 18.0004 19.8122C16.9904 19.8122 16.0704 19.4992 15.3704 18.9662C15.0604 18.7462 14.7904 18.4755 14.5804 18.1709C14.2104 17.6633 14.0004 17.0626 14.0004 16.4281C14.0004 14.5584 15.7904 13.044 18.0004 13.044C19.2004 13.044 20.2704 13.4924 21.0004 14.1946C21.6204 14.7953 22.0004 15.5736 22.0004 16.4281Z" stroke="#292D32" stroke-width="1.5" stroke-miterlimit="10" stroke-linecap="round" stroke-linejoin="round"/>
<path d="M16.4404 16.4281L17.4304 17.2657L19.5604 15.599" stroke="#292D32" stroke-width="1.5" stroke-linecap="round" stroke-linejoin="round"/>
<path d="M21.0004 7.54485V14.1946C20.2704 13.4924 19.2004 13.044 18.0004 13.044C15.7904 13.044 14.0004 14.5584 14.0004 16.4281C14.0004 17.0626 14.2104 17.6633 14.5804 18.1709C14.7904 18.4755 15.0604 18.7462 15.3704 18.9662H8.00045C4.50045 18.9662 3.00045 17.2741 3.00045 14.736V7.54485C3.00045 5.00678 4.50045 3.31473 8.00045 3.31473H16.0004C19.5004 3.31473 21.0004 5.00678 21.0004 7.54485Z" stroke="#292D32" stroke-width="1.5" stroke-miterlimit="10" stroke-linecap="round" stroke-linejoin="round"/>
<path d="M11.9959 11.9442H12.0049" stroke="#292D32" stroke-width="2" stroke-linecap="round" stroke-linejoin="round"/>
<path d="M8.29476 11.9442H8.30374" stroke="#292D32" stroke-width="2" stroke-linecap="round" stroke-linejoin="round"/>
<path d="M8.29476 14.4822H8.30374" stroke="#292D32" stroke-width="2" stroke-linecap="round" stroke-linejoin="round"/>
</svg>
