<svg width="29" height="25" viewBox="0 0 29 25" fill="none" xmlns="http://www.w3.org/2000/svg">
<path d="M9.797 23.237H5.01115C2.63007 23.237 1.481 22.3049 1.481 20.3807V4.54571C1.481 2.62146 2.64192 1.6894 5.01115 1.6894H9.797C12.1781 1.6894 13.3271 2.62146 13.3271 4.54571V20.3807C13.3271 22.3049 12.1662 23.237 9.797 23.237ZM5.01115 3.19272C3.50669 3.19272 3.25792 3.53347 3.25792 4.54571V20.3807C3.25792 21.3929 3.50669 21.7337 5.01115 21.7337H9.797C11.3015 21.7337 11.5502 21.3929 11.5502 20.3807V4.54571C11.5502 3.53347 11.3015 3.19272 9.797 3.19272H5.01115Z" fill="#292D32"/>
<path d="M23.4194 14.2171H18.6336C16.2525 14.2171 15.1034 13.285 15.1034 11.3608V4.54571C15.1034 2.62146 16.2643 1.6894 18.6336 1.6894H23.4194C25.8005 1.6894 26.9496 2.62146 26.9496 4.54571V11.3608C26.9496 13.285 25.7886 14.2171 23.4194 14.2171ZM18.6336 3.19272C17.1291 3.19272 16.8803 3.53347 16.8803 4.54571V11.3608C16.8803 12.373 17.1291 12.7137 18.6336 12.7137H23.4194C24.9239 12.7137 25.1726 12.373 25.1726 11.3608V4.54571C25.1726 3.53347 24.9239 3.19272 23.4194 3.19272H18.6336Z" fill="#292D32"/>
<path d="M23.4194 23.2365H18.6336C16.2525 23.2365 15.1034 22.3044 15.1034 20.3802V18.5762C15.1034 16.6519 16.2643 15.7199 18.6336 15.7199H23.4194C25.8005 15.7199 26.9496 16.6519 26.9496 18.5762V20.3802C26.9496 22.3044 25.7886 23.2365 23.4194 23.2365ZM18.6336 17.2232C17.1291 17.2232 16.8803 17.564 16.8803 18.5762V20.3802C16.8803 21.3924 17.1291 21.7332 18.6336 21.7332H23.4194C24.9239 21.7332 25.1726 21.3924 25.1726 20.3802V18.5762C25.1726 17.564 24.9239 17.2232 23.4194 17.2232H18.6336Z" fill="#292D32"/>
</svg>
