<svg width="24" height="21" viewBox="0 0 24 21" fill="none" xmlns="http://www.w3.org/2000/svg">
<path d="M18.0395 11.8273C17.6195 12.1741 17.3795 12.6733 17.4395 13.2063C17.5295 14.12 18.5195 14.7884 19.5995 14.7884H21.4995V15.7951C21.4995 17.5464 19.8095 18.9762 17.7395 18.9762H7.62947C7.93947 18.7562 8.20946 18.4855 8.41946 18.1809C8.78946 17.6733 8.99946 17.0726 8.99946 16.4381C8.99946 14.5684 7.20946 13.054 4.99946 13.054C4.05946 13.054 3.18946 13.3332 2.49946 13.7985V10.1014C2.49946 8.35014 4.18946 6.92035 6.25946 6.92035H17.7395C19.8095 6.92035 21.4995 8.35014 21.4995 10.1014V11.3197H19.4795C18.9195 11.3197 18.4095 11.5058 18.0395 11.8273Z" stroke="#292D32" stroke-width="1.5" stroke-linecap="round" stroke-linejoin="round"/>
<path d="M2.49946 10.8628V6.99654C2.49946 5.98977 3.22946 5.09295 4.33946 4.73762L12.2795 2.19955C13.5195 1.80192 14.8495 2.58029 14.8495 3.7055V6.92038" stroke="#292D32" stroke-width="1.5" stroke-linecap="round" stroke-linejoin="round"/>
<path d="M22.5583 12.1828V13.9256C22.5583 14.3909 22.1183 14.7716 21.5583 14.7885H19.5983C18.5183 14.7885 17.5283 14.1202 17.4383 13.2065C17.3783 12.6735 17.6183 12.1743 18.0383 11.8274C18.4083 11.506 18.9183 11.3199 19.4783 11.3199H21.5583C22.1183 11.3368 22.5583 11.7175 22.5583 12.1828Z" stroke="#292D32" stroke-width="1.5" stroke-linecap="round" stroke-linejoin="round"/>
<path d="M6.99946 10.516H13.9995" stroke="#292D32" stroke-width="1.5" stroke-linecap="round" stroke-linejoin="round"/>
<path d="M8.99946 16.4381C8.99946 17.0727 8.78946 17.6733 8.41946 18.1809C8.20946 18.4855 7.93947 18.7562 7.62947 18.9762C6.92947 19.5092 6.00946 19.8222 4.99946 19.8222C3.53946 19.8222 2.26946 19.1623 1.57946 18.1809C1.20946 17.6733 0.999462 17.0727 0.999462 16.4381C0.999462 15.3722 1.57946 14.4161 2.49946 13.7986C3.18946 13.3332 4.05946 13.054 4.99946 13.054C7.20946 13.054 8.99946 14.5684 8.99946 16.4381Z" stroke="#292D32" stroke-width="1.5" stroke-miterlimit="10" stroke-linecap="round" stroke-linejoin="round"/>
<path d="M3.44087 16.4377L4.43086 17.2753L6.56086 15.6086" stroke="#292D32" stroke-width="1.5" stroke-linecap="round" stroke-linejoin="round"/>
</svg>
