<svg width="24" height="22" viewBox="0 0 24 22" fill="none" xmlns="http://www.w3.org/2000/svg">
<path d="M17.9797 10.0507V13.4348C17.9797 13.6548 17.9697 13.8663 17.9397 14.0693C17.7097 16.3536 16.1197 17.4872 13.1897 17.4872H12.7897C12.5397 17.4872 12.2996 17.5887 12.1496 17.758L10.9497 19.1116C10.4197 19.7123 9.55965 19.7123 9.02965 19.1116L7.82964 17.758C7.69964 17.6141 7.40965 17.4872 7.18965 17.4872H6.78966C3.59966 17.4872 1.99965 16.8189 1.99965 13.4348V10.0507C1.99965 7.57184 3.34966 6.22666 6.03966 6.03208C6.27966 6.0067 6.52966 5.99823 6.78966 5.99823H13.1897C16.3797 5.99823 17.9797 7.35188 17.9797 10.0507Z" stroke="#292D32" stroke-width="1.5" stroke-miterlimit="10" stroke-linecap="round" stroke-linejoin="round"/>
<path d="M21.9797 6.6666V10.0507C21.9797 12.538 20.6297 13.8747 17.9397 14.0693C17.9697 13.8663 17.9797 13.6548 17.9797 13.4348V10.0507C17.9797 7.35188 16.3797 5.99823 13.1897 5.99823H6.78966C6.52966 5.99823 6.27966 6.0067 6.03966 6.03208C6.26966 3.75627 7.85966 2.61414 10.7897 2.61414H17.1897C20.3797 2.61414 21.9797 3.96778 21.9797 6.6666Z" stroke="#292D32" stroke-width="1.5" stroke-miterlimit="10" stroke-linecap="round" stroke-linejoin="round"/>
<path d="M13.4951 12.1319H13.5041" stroke="#292D32" stroke-width="2" stroke-linecap="round" stroke-linejoin="round"/>
<path d="M9.99515 12.1319H10.0041" stroke="#292D32" stroke-width="2" stroke-linecap="round" stroke-linejoin="round"/>
<path d="M6.49515 12.1319H6.50415" stroke="#292D32" stroke-width="2" stroke-linecap="round" stroke-linejoin="round"/>
</svg>
