<svg width="24" height="21" viewBox="0 0 24 21" fill="none" xmlns="http://www.w3.org/2000/svg">
<path d="M5.46944 8.23824C7.40244 8.23824 8.96944 6.91251 8.96944 5.27715C8.96944 3.64179 7.40244 2.31607 5.46944 2.31607C3.53645 2.31607 1.96944 3.64179 1.96944 5.27715C1.96944 6.91251 3.53645 8.23824 5.46944 8.23824Z" stroke="#292D32" stroke-width="1.5"/>
<path d="M16.9694 13.3144H19.9694C21.0694 13.3144 21.9694 14.0758 21.9694 15.0064V17.5445C21.9694 18.4751 21.0694 19.2365 19.9694 19.2365H16.9694C15.8694 19.2365 14.9694 18.4751 14.9694 17.5445V15.0064C14.9694 14.0758 15.8694 13.3144 16.9694 13.3144Z" stroke="#292D32" stroke-width="1.5"/>
<path d="M11.9994 4.85414H14.6794C16.5294 4.85414 17.3894 6.79154 15.9994 7.82368L8.00944 13.7374C6.61944 14.7611 7.47944 16.6985 9.31944 16.6985H11.9994" stroke="#292D32" stroke-width="1.5" stroke-linecap="round" stroke-linejoin="round"/>
<path d="M5.48566 5.27715H5.49721" stroke="#292D32" stroke-width="2" stroke-linecap="round" stroke-linejoin="round"/>
<path d="M18.4857 16.2755H18.4972" stroke="#292D32" stroke-width="2" stroke-linecap="round" stroke-linejoin="round"/>
</svg>
