<svg width="24" height="21" viewBox="0 0 24 21" fill="none" xmlns="http://www.w3.org/2000/svg">
<path d="M19.9999 7.19949V15.4482C19.9999 17.9863 18.2099 18.8323 15.9999 18.8323H7.99992C5.78992 18.8323 3.99992 17.9863 3.99992 15.4482V7.19949C3.99992 4.44992 5.78992 3.8154 7.99992 3.8154C7.99992 4.33993 8.24989 4.8137 8.65989 5.16057C9.06989 5.50744 9.62992 5.71895 10.2499 5.71895H13.7499C14.9899 5.71895 15.9999 4.86447 15.9999 3.8154C18.2099 3.8154 19.9999 4.44992 19.9999 7.19949Z" stroke="#292D32" stroke-width="1.5" stroke-linecap="round" stroke-linejoin="round"/>
<path d="M15.9999 3.81539C15.9999 4.86446 14.9899 5.71894 13.7499 5.71894H10.2499C9.62992 5.71894 9.06989 5.50743 8.65989 5.16056C8.24989 4.81369 7.99992 4.33992 7.99992 3.81539C7.99992 2.76632 9.00992 1.91183 10.2499 1.91183H13.7499C14.3699 1.91183 14.9299 2.12334 15.3399 2.47021C15.7499 2.81708 15.9999 3.29085 15.9999 3.81539Z" stroke="#292D32" stroke-width="1.5" stroke-linecap="round" stroke-linejoin="round"/>
<path d="M7.99992 11.2181H11.9999" stroke="#292D32" stroke-width="1.5" stroke-linecap="round" stroke-linejoin="round"/>
<path d="M7.99992 14.6022H15.9999" stroke="#292D32" stroke-width="1.5" stroke-linecap="round" stroke-linejoin="round"/>
</svg>
