<svg width="25" height="22" viewBox="0 0 25 22" fill="none" xmlns="http://www.w3.org/2000/svg">
<path d="M9.5217 19.3265H15.5217C20.5217 19.3265 22.5217 17.6345 22.5217 13.4044V8.32823C22.5217 4.09811 20.5217 2.40607 15.5217 2.40607H9.5217C4.5217 2.40607 2.5217 4.09811 2.5217 8.32823V13.4044C2.5217 17.6345 4.5217 19.3265 9.5217 19.3265Z" stroke="#292D32" stroke-width="1.5" stroke-linecap="round" stroke-linejoin="round"/>
<path d="M16.0917 16.3654V13.0659" stroke="#292D32" stroke-width="1.5" stroke-miterlimit="10" stroke-linecap="round" stroke-linejoin="round"/>
<path d="M16.0917 7.01687V5.36713" stroke="#292D32" stroke-width="1.5" stroke-miterlimit="10" stroke-linecap="round" stroke-linejoin="round"/>
<path d="M16.0917 11.4162C17.5276 11.4162 18.6917 10.4313 18.6917 9.21651C18.6917 8.00167 17.5276 7.01685 16.0917 7.01685C14.6558 7.01685 13.4917 8.00167 13.4917 9.21651C13.4917 10.4313 14.6558 11.4162 16.0917 11.4162Z" stroke="#292D32" stroke-width="1.5" stroke-miterlimit="10" stroke-linecap="round" stroke-linejoin="round"/>
<path d="M8.9517 16.3654V14.7157" stroke="#292D32" stroke-width="1.5" stroke-miterlimit="10" stroke-linecap="round" stroke-linejoin="round"/>
<path d="M8.9517 8.66662V5.36713" stroke="#292D32" stroke-width="1.5" stroke-miterlimit="10" stroke-linecap="round" stroke-linejoin="round"/>
<path d="M8.9517 14.7157C10.3876 14.7157 11.5517 13.7308 11.5517 12.516C11.5517 11.3012 10.3876 10.3163 8.9517 10.3163C7.51576 10.3163 6.3517 11.3012 6.3517 12.516C6.3517 13.7308 7.51576 14.7157 8.9517 14.7157Z" stroke="#292D32" stroke-width="1.5" stroke-miterlimit="10" stroke-linecap="round" stroke-linejoin="round"/>
</svg>
