<svg width="25" height="21" viewBox="0 0 25 21" fill="none" xmlns="http://www.w3.org/2000/svg">
<path d="M18.6618 18.5536C17.7818 18.7736 16.7418 18.8751 15.5218 18.8751H9.52179C8.30179 18.8751 7.26179 18.7736 6.38179 18.5536C6.60179 16.3539 9.27179 14.6196 12.5218 14.6196C15.7718 14.6196 18.4418 16.3539 18.6618 18.5536Z" stroke="#292D32" stroke-width="1.5" stroke-linecap="round" stroke-linejoin="round"/>
<path d="M15.5218 1.95465H9.52179C4.52179 1.95465 2.52179 3.6467 2.52179 7.87682V12.953C2.52179 16.1509 3.66179 17.9022 6.38179 18.5536C6.60179 16.354 9.27179 14.6196 12.5218 14.6196C15.7718 14.6196 18.4418 16.354 18.6618 18.5536C21.3818 17.9022 22.5218 16.1509 22.5218 12.953V7.87682C22.5218 3.6467 20.5218 1.95465 15.5218 1.95465ZM12.5218 12.2507C10.5418 12.2507 8.94179 10.8887 8.94179 9.21355C8.94179 7.53842 10.5418 6.18477 12.5218 6.18477C14.5018 6.18477 16.1018 7.53842 16.1018 9.21355C16.1018 10.8887 14.5018 12.2507 12.5218 12.2507Z" stroke="#292D32" stroke-width="1.5" stroke-linecap="round" stroke-linejoin="round"/>
<path d="M16.1018 9.21353C16.1018 10.8887 14.5018 12.2507 12.5218 12.2507C10.5418 12.2507 8.94179 10.8887 8.94179 9.21353C8.94179 7.53841 10.5418 6.18475 12.5218 6.18475C14.5018 6.18475 16.1018 7.53841 16.1018 9.21353Z" stroke="#292D32" stroke-width="1.5" stroke-linecap="round" stroke-linejoin="round"/>
</svg>
